<svg width="128" height="128" viewBox="0 0 128 128" fill="none" xmlns="http://www.w3.org/2000/svg">
  <rect width="128" height="128" rx="30" fill="#0F172A"/>
  <rect x="20" y="20" width="88" height="88" rx="24" fill="#F59E0B" fill-opacity="0.12"/>
  <path d="M64 28C49.0883 28 37 40.0883 37 55C37 69.9117 49.0883 82 64 82C78.9117 82 91 69.9117 91 55C91 40.0883 78.9117 28 64 28ZM64 41C71.732 41 78 47.268 78 55C78 62.732 71.732 69 64 69C56.268 69 50 62.732 50 55C50 47.268 56.268 41 64 41Z" fill="#FBBF24"/>
  <path d="M34 92C34 84.268 40.268 78 48 78H80C87.732 78 94 84.268 94 92V95C94 98.866 90.866 102 87 102H41C37.134 102 34 98.866 34 95V92Z" fill="white"/>
  <path d="M46 90H82" stroke="#0F172A" stroke-width="6" stroke-linecap="round"/>
  <path d="M53 98H75" stroke="#0F172A" stroke-width="6" stroke-linecap="round"/>
</svg>
