<svg width="128" height="128" viewBox="0 0 128 128" fill="none" xmlns="http://www.w3.org/2000/svg">
  <!-- White background ensures visibility on dark taskbars/tabs -->
  <rect width="128" height="128" rx="32" fill="white"/>
  
  <!-- Accurate recreation of the Serefy Bird/S Icon -->
  <path d="M64 64C50.7452 64 40 53.2548 40 40C40 26.7452 50.7452 16 64 16C77.2548 16 88 26.7452 88 40C88 53.2548 77.2548 64 64 64Z" fill="black"/>
  <path d="M64 64C50.7452 64 40 74.7452 40 88C40 101.255 50.7452 112 64 112C77.2548 112 88 101.255 88 88C88 74.7452 77.2548 64 64 64Z" fill="black" fill-opacity="0.2"/>
  <path d="M64 112C48.536 112 36 99.464 36 84C36 68.536 48.536 56 64 56C79.464 56 92 68.536 92 84C92 99.464 79.464 112 64 112ZM64 100C72.8366 100 80 92.8366 80 84C80 75.1634 72.8366 68 64 68C55.1634 68 48 75.1634 48 84C48 92.8366 55.1634 100 64 100Z" fill="black"/>
  <path d="M64 16L78 30C78 30 92 40 92 50C92 60 82 70 68 70" stroke="black" stroke-width="12" stroke-linecap="round"/>
  <circle cx="78" cy="38" r="4" fill="white"/>
</svg>
